<?xml version="1.0" encoding="UTF-8" standalone="no"?>
<svg
   width="1024px"
   height="1024px"
   viewBox="0 0 1024 1024"
   class="icon"
   version="1.1"
   id="svg4"
   sodipodi:docname="code-white.svg"
   inkscape:version="1.1.1 (3bf5ae0d25, 2021-09-20)"
   xmlns:inkscape="http://www.inkscape.org/namespaces/inkscape"
   xmlns:sodipodi="http://sodipodi.sourceforge.net/DTD/sodipodi-0.dtd"
   xmlns="http://www.w3.org/2000/svg"
   xmlns:svg="http://www.w3.org/2000/svg">
  <defs
     id="defs8" />
  <sodipodi:namedview
     id="namedview6"
     pagecolor="#505050"
     bordercolor="#eeeeee"
     borderopacity="1"
     inkscape:pageshadow="0"
     inkscape:pageopacity="0"
     inkscape:pagecheckerboard="0"
     showgrid="false"
     inkscape:zoom="0.63671875"
     inkscape:cx="512"
     inkscape:cy="512.78528"
     inkscape:window-width="1600"
     inkscape:window-height="837"
     inkscape:window-x="-8"
     inkscape:window-y="-8"
     inkscape:window-maximized="1"
     inkscape:current-layer="svg4" />
  <path
     d="M516 673c0 4.4 3.4 8 7.5 8h185c4.1 0 7.5-3.6 7.5-8v-48c0-4.4-3.4-8-7.5-8h-185c-4.1 0-7.5 3.6-7.5 8v48zm-194.9 6.1l192-161c3.8-3.2 3.8-9.1 0-12.3l-192-160.9A7.95 7.95 0 0 0 308 351v62.7c0 2.4 1 4.6 2.9 6.1L420.7 512l-109.8 92.2a8.1 8.1 0 0 0-2.9 6.1V673c0 6.8 7.9 10.5 13.1 6.1zM880 112H144c-17.7 0-32 14.3-32 32v736c0 17.7 14.3 32 32 32h736c17.7 0 32-14.3 32-32V144c0-17.7-14.3-32-32-32zm-40 728H184V184h656v656z"
     id="path2" />
  <path
     style="fill:#ffffff;stroke-width:1.57055"
     d="m 129.42494,907.26457 c -4.54611,-2.40095 -8.53903,-6.26682 -11.63353,-11.26334 l -4.71166,-7.60767 V 512 135.60644 l 4.71166,-7.60767 c 3.0945,-4.99652 7.08742,-8.86238 11.63353,-11.26334 l 6.92186,-3.65568 H 512 887.65319 l 6.92188,3.65568 c 4.5461,2.40096 8.53903,6.26682 11.63352,11.26334 l 4.71166,7.60767 V 512 888.39356 l -4.71166,7.60767 c -3.09449,4.99652 -7.08742,8.86239 -11.63352,11.26334 l -6.92188,3.65568 H 512 136.3468 Z M 841.03067,512 V 183.7546 H 512 182.96933 V 512 840.2454 H 512 841.03067 Z"
     id="path862" />
  <path
     style="fill:#ffffff;stroke-width:1.57055"
     d="m 311.08151,677.58107 c -2.0898,-2.0898 -2.46801,-7.61603 -2.46801,-36.06151 0,-32.10211 0.14639,-33.7299 3.29749,-36.6656 1.81362,-1.68964 27.22276,-23.09632 56.46475,-47.57039 29.24199,-24.47405 53.16725,-44.85167 53.16725,-45.28357 0,-0.4319 -23.92526,-20.80951 -53.16725,-45.28358 -29.24199,-24.47406 -54.65113,-45.88073 -56.46475,-47.57038 -3.1511,-2.9357 -3.29749,-4.5635 -3.29749,-36.66559 0,-28.91232 0.35556,-33.94907 2.55159,-36.1451 1.40337,-1.40337 3.87657,-2.33729 5.496,-2.07537 1.61942,0.26192 46.7934,37.22714 100.38662,82.14493 88.67338,74.31934 97.40084,82.05185 96.98253,85.92619 -0.37827,3.5035 -17.7047,18.72722 -97.83392,85.96107 -53.55583,44.93696 -98.56056,81.71557 -100.01052,81.73024 -1.44995,0.0141 -3.74689,-1.08393 -5.10429,-2.44134 z"
     id="path901" />
  <path
     style="fill:#ffffff;stroke-width:1.57055"
     d="m 519.3816,678.16442 c -1.3244,-1.3244 -1.88467,-10.17886 -1.88467,-29.78524 0,-25.97708 0.20943,-28.01265 3.03786,-29.52638 1.99628,-1.06838 35.02963,-1.62581 96.34554,-1.62581 88.40038,0 93.44439,0.15106 95.90692,2.87214 2.19399,2.42431 2.59925,6.84818 2.59925,28.37319 0,14.57508 -0.69658,26.80263 -1.6258,28.53891 -1.58001,2.95227 -4.31442,3.03785 -97.06013,3.03785 -72.13262,0 -95.89448,-0.46017 -97.31897,-1.88466 z"
     id="path940" />
</svg>
