<?xml version="1.0" encoding="UTF-8" standalone="no"?>
<svg
   width="21px"
   height="21px"
   viewBox="0 0 21 21"
   version="1.1"
   id="svg4"
   sodipodi:docname="grid-icon.svg"
   inkscape:version="1.1.1 (3bf5ae0d25, 2021-09-20)"
   xmlns:inkscape="http://www.inkscape.org/namespaces/inkscape"
   xmlns:sodipodi="http://sodipodi.sourceforge.net/DTD/sodipodi-0.dtd"
   xmlns="http://www.w3.org/2000/svg"
   xmlns:svg="http://www.w3.org/2000/svg">
  <defs
     id="defs8" />
  <sodipodi:namedview
     id="namedview6"
     pagecolor="#505050"
     bordercolor="#eeeeee"
     borderopacity="1"
     inkscape:pageshadow="0"
     inkscape:pageopacity="0"
     inkscape:pagecheckerboard="0"
     showgrid="false"
     inkscape:zoom="31.52381"
     inkscape:cx="10.5"
     inkscape:cy="15.876888"
     inkscape:window-width="1600"
     inkscape:window-height="847"
     inkscape:window-x="-8"
     inkscape:window-y="-8"
     inkscape:window-maximized="1"
     inkscape:current-layer="svg4" />
  <path
     style="fill:#ffffff;stroke-width:0.0587312"
     d="M 1.4619058,13.105861 C 0.88039261,12.971738 0.29842263,12.489384 0.1166688,11.990892 -0.0241527,11.604664 -0.02351885,9.3871437 0.1175237,9.0003094 0.25032228,8.6360856 0.72540756,8.1617389 1.1274817,7.9919216 1.4349538,7.8620597 1.5031188,7.8566937 2.844998,7.8566937 c 1.2991671,0 1.4170668,0.00852 1.6781657,0.1213478 0.3850739,0.1663936 0.7601273,0.4966702 0.9541551,0.8402392 l 0.1623526,0.2874821 v 1.3910092 c 0,1.341575 -0.00497,1.399677 -0.1393263,1.634866 -0.2147438,0.375852 -0.5364362,0.674067 -0.9141102,0.847389 -0.3399493,0.156018 -0.3585546,0.157951 -1.6197287,0.168707 -0.7017064,0.0058 -1.3787765,-0.01294 -1.5046,-0.04189 z"
     id="path934" />
  <path
     style="fill:#ffffff;stroke-width:0.0587312"
     d="M 1.3869071,20.241578 C 0.97757372,20.117241 0.77633854,19.995069 0.48909198,19.696499 0.0592977,19.249766 0.01994706,19.078156 0.01994706,17.650538 c 0,-0.974937 0.01998482,-1.283655 0.0967215,-1.494121 0.13201026,-0.362061 0.56190304,-0.793012 0.98453684,-0.986966 l 0.3464554,-0.158989 h 1.3973369 1.3973371 l 0.3439494,0.157879 c 0.3777343,0.173378 0.6993248,0.471499 0.9140603,0.847337 0.1343756,0.235189 0.1393264,0.293293 0.1393264,1.634865 v 1.391012 l -0.161824,0.283878 c -0.2080161,0.364914 -0.5485584,0.669967 -0.9317442,0.834642 -0.2834735,0.12184 -0.3910391,0.131375 -1.6099753,0.142934 -0.9385847,0.0089 -1.374601,-0.0084 -1.5492216,-0.06143 z"
     id="path973" />
  <path
     style="fill:#ffffff;stroke-width:0.0587312"
     d="M 9.041884,20.241578 C 8.6322131,20.11714 8.4312598,19.995013 8.1427599,19.695138 7.6997521,19.234672 7.6634242,19.064326 7.6859843,17.553304 c 0.019056,-1.276337 0.021504,-1.297651 0.1816692,-1.581258 0.194028,-0.343571 0.5690814,-0.673846 0.9541552,-0.840239 0.2610988,-0.112835 0.3789986,-0.121346 1.6781663,-0.121346 1.299167,0 1.417067,0.0086 1.678164,0.121346 0.385075,0.166397 0.760128,0.496668 0.954156,0.840239 0.160168,0.283607 0.162619,0.304921 0.181675,1.581258 0.01627,1.085324 0.003,1.339275 -0.08105,1.576186 -0.134753,0.379125 -0.60215,0.851355 -1.015417,1.025898 -0.30167,0.127415 -0.395689,0.135953 -1.626385,0.147623 -0.9385856,0.0089 -1.3746021,-0.0084 -1.5492224,-0.06143 z"
     id="path1012" />
  <path
     style="fill:#ffffff;stroke-width:0.0587312"
     d="M 9.115852,13.105662 C 8.5701796,12.979889 8.1001261,12.61264 7.8477456,12.114888 L 7.6750198,11.774231 7.6746709,10.525161 C 7.6743789,9.4775117 7.6915159,9.2310913 7.7809425,8.9970367 7.9248305,8.6204408 8.3326772,8.2100389 8.7561824,8.0156862 l 0.3464554,-0.158993 h 1.3973372 c 1.299167,0 1.417067,0.00852 1.678164,0.1213476 0.41651,0.1799777 0.778265,0.5144555 0.974065,0.9006176 l 0.172731,0.3406556 v 1.277458 1.277459 l -0.172731,0.340657 c -0.195964,0.386488 -0.558074,0.721105 -0.974065,0.900111 -0.254881,0.109676 -0.398706,0.121906 -1.556655,0.132231 -0.701709,0.0061 -1.3792415,-0.01253 -1.505632,-0.04158 z"
     id="path1051" />
  <path
     style="fill:#ffffff;stroke-width:0.0587312"
     d="M 1.4142805,5.9365689 C 0.84258192,5.7874693 0.29313063,5.3211048 0.11564043,4.8343064 -0.0241899,4.4507968 -0.02279097,2.2313831 0.1175237,1.8465451 0.25032228,1.4823208 0.72540756,1.0079744 1.1274817,0.83815728 1.434291,0.70857623 1.5047419,0.70292753 2.8146212,0.70292753 c 1.1989162,0 1.4038651,0.0132981 1.6671658,0.10820197 0.3809092,0.13728966 0.788569,0.4870327 0.9962496,0.8547085 l 0.1616362,0.286159 v 1.3910096 c 0,1.3415732 -0.00497,1.3996765 -0.1393263,1.6348657 C 5.2853685,5.3541347 4.9637713,5.6520093 4.5862861,5.824507 4.247474,5.9793331 4.2232806,5.9818816 2.9665075,5.9951655 2.0803523,6.0045262 1.6062589,5.9866283 1.4142823,5.9365661 Z"
     id="path1090" />
  <path
     style="fill:#ffffff;stroke-width:0.0587312"
     d="M 9.115852,5.9518974 C 8.6012323,5.8332858 8.1260905,5.4791184 7.8676542,5.0215005 7.7074889,4.7378926 7.7050405,4.7165816 7.6859843,3.440243 7.66978,2.3549191 7.6828401,2.1009665 7.767042,1.8640563 7.9017906,1.4849292 8.3691937,1.0127007 8.7824585,0.83815728 9.0899305,0.70829566 9.1580957,0.70292846 10.499975,0.70292846 c 1.341878,0 1.410043,0.005364 1.717517,0.13522964 0.413264,0.1745441 0.880667,0.6467722 1.015415,1.0258994 0.08422,0.2369099 0.09726,0.4908625 0.08105,1.5761865 -0.01896,1.2763384 -0.02152,1.2976496 -0.181675,1.5812572 -0.194226,0.3439167 -0.569551,0.6742316 -0.954159,0.8397361 -0.25488,0.1096798 -0.398706,0.1218972 -1.556657,0.1322375 -0.7017068,0.00627 -1.3792399,-0.012446 -1.5056304,-0.041575 z"
     id="path1129" />
  <path
     style="fill:#ffffff;stroke-width:0.0587312"
     d="M 16.811241,5.9599951 C 16.250282,5.8277502 15.786971,5.4808354 15.499605,4.9778739 15.36523,4.7426848 15.360277,4.6845813 15.360277,3.3430082 V 1.9519985 l 0.162352,-0.2874823 c 0.194026,-0.3435688 0.56908,-0.67384494 0.954151,-0.84023889 0.261649,-0.11305869 0.378351,-0.1213503 1.708546,-0.1213503 h 1.427712 l 0.310307,0.15299332 c 0.39408,0.19429717 0.835043,0.65043537 0.959933,0.99296817 0.140211,0.3845746 0.140211,2.6036619 0,2.9882367 -0.132015,0.3620608 -0.561903,0.7930157 -0.984536,0.9869682 -0.343133,0.1574677 -0.35869,0.1590964 -1.622286,0.1697707 -0.701707,0.00592 -1.361056,-0.00931 -1.465218,-0.033869 z"
     id="path1168" />
  <path
     style="fill:#ffffff;stroke-width:0.0587312"
     d="m 16.770828,13.105662 c -0.514619,-0.118609 -0.989762,-0.472779 -1.248196,-0.930397 l -0.162355,-0.287483 v -1.39101 -1.391009 l 0.162352,-0.2874821 c 0.194026,-0.343569 0.56908,-0.673845 0.954151,-0.8402392 0.261101,-0.1128227 0.379,-0.1213477 1.678168,-0.1213477 1.341879,0 1.410044,0.00537 1.717516,0.1352279 0.402075,0.1698172 0.87716,0.6441639 1.009959,1.0083879 0.141648,0.3884884 0.141648,2.6044382 0,2.9929262 -0.133201,0.365311 -0.608062,0.838925 -1.009959,1.007293 -0.299962,0.125667 -0.400733,0.134896 -1.596008,0.146117 -0.701707,0.0067 -1.379241,-0.01187 -1.505632,-0.04098 z"
     id="path1207" />
  <path
     style="fill:#ffffff;stroke-width:0.0587312"
     d="m 16.696861,20.241947 c -0.518118,-0.156586 -0.926333,-0.47396 -1.174229,-0.912917 l -0.162351,-0.287482 v -1.39101 c 0,-1.341575 0.0049,-1.399678 0.13933,-1.634867 0.214735,-0.375837 0.536326,-0.673956 0.914061,-0.847338 l 0.343949,-0.157876 h 1.397336 1.397337 l 0.346456,0.158987 c 0.422633,0.193952 0.852527,0.624907 0.984536,0.986967 0.140825,0.386228 0.140192,2.603746 -8.53e-4,2.990583 -0.1328,0.364222 -0.607886,0.838571 -1.009961,1.008388 -0.301668,0.127414 -0.395687,0.135952 -1.626384,0.147621 -0.934863,0.0089 -1.375292,-0.0084 -1.549221,-0.06104 z"
     id="path1246" />
</svg>
