<?xml version="1.0" encoding="UTF-8" standalone="no"?>
<!-- Generator: Adobe Illustrator 19.0.0, SVG Export Plug-In . SVG Version: 6.00 Build 0)  -->

<svg
   version="1.1"
   id="Capa_1"
   x="0px"
   y="0px"
   viewBox="0 0 297.047 297.047"
   style="enable-background:new 0 0 297.047 297.047;"
   xml:space="preserve"
   sodipodi:docname="handshake-white.svg"
   inkscape:version="1.1.1 (3bf5ae0d25, 2021-09-20)"
   xmlns:inkscape="http://www.inkscape.org/namespaces/inkscape"
   xmlns:sodipodi="http://sodipodi.sourceforge.net/DTD/sodipodi-0.dtd"
   xmlns="http://www.w3.org/2000/svg"
   xmlns:svg="http://www.w3.org/2000/svg"><defs
   id="defs39" /><sodipodi:namedview
   id="namedview37"
   pagecolor="#505050"
   bordercolor="#eeeeee"
   borderopacity="1"
   inkscape:pageshadow="0"
   inkscape:pageopacity="0"
   inkscape:pagecheckerboard="0"
   showgrid="false"
   inkscape:zoom="2.1949389"
   inkscape:cx="148.5235"
   inkscape:cy="148.7513"
   inkscape:window-width="1600"
   inkscape:window-height="837"
   inkscape:window-x="-8"
   inkscape:window-y="-8"
   inkscape:window-maximized="1"
   inkscape:current-layer="Capa_1" />
<g
   id="g4">
	<path
   d="M291.919,85.301l-69.564-69.675c-3.324-3.333-7.755-5.171-12.47-5.171c-3.72,0-7.335,1.18-10.33,3.347l-1.929,1.1   l-89.508,12.311c-2.05,0.076-4.036,0.401-5.934,0.939l-3.141-2.953c-0.129-0.121-0.261-0.24-0.395-0.355   c-3.194-2.748-7.273-4.261-11.487-4.261c-4.714,0-9.145,1.838-12.474,5.176L5.132,95.425c-6.219,6.233-6.864,16.195-1.505,23.175   c0.185,0.239,0.378,0.473,0.579,0.698l29.846,33.319c0.967,4.03,2.293,8.183,3.95,12.439c-7.239,8.719-6.783,21.715,1.385,29.886   c0.014,0.014,0.028,0.027,0.042,0.041l0.097,0.096c4.099,4.084,9.513,6.358,15.282,6.46c-0.107,0.893-0.181,1.792-0.181,2.705   c0,5.923,2.302,11.491,6.483,15.686l0.089,0.09c0.014,0.014,0.027,0.028,0.041,0.042c4.197,4.197,9.777,6.51,15.713,6.51   c0.688,0,1.368-0.038,2.045-0.1c0.066,0.075,0.137,0.15,0.204,0.226c-0.012,0.301-0.044,0.599-0.044,0.901   c0,5.924,2.303,11.494,6.485,15.688l0.092,0.094c0.013,0.013,0.025,0.025,0.038,0.038c4.196,4.196,9.776,6.507,15.712,6.507   c0.015,0,0.029-0.002,0.044-0.002l2.118,2.118c0.246,5.559,2.501,10.753,6.461,14.713c0.025,0.024,0.051,0.05,0.076,0.075   l0.077,0.076c3.952,3.93,9.128,6.168,14.663,6.413l5.855,5.856c4.783,4.783,11.157,7.417,17.947,7.417   c7.814,0,15.076-3.513,19.924-9.639c2.636-3.329,4.295-7.151,5.002-11.11l3.677,3.678c4.857,4.856,11.566,7.643,18.406,7.643   c5.648,0,11.172-1.91,15.555-5.38c4.869-3.853,8.134-9.344,9.23-15.386c4.696,4.017,10.766,6.289,16.942,6.289   c5.647,0,11.172-1.911,15.555-5.38c5.679-4.495,9.177-11.218,9.596-18.444c0.39-6.715-1.895-13.293-6.303-18.286   c4.077-0.719,7.942-2.432,11.184-4.997c5.68-4.495,9.177-11.218,9.596-18.444c0.42-7.239-2.268-14.32-7.375-19.427l-9.433-9.433   c0.344-0.342,0.673-0.7,0.976-1.086c17.664-22.508,27.176-39.253,30.683-54.068c0.275-0.484,0.518-0.988,0.724-1.508l1.948-4.908   C298.637,99.89,297.626,91.021,291.919,85.301z M55.207,189.559c-2.615,0-5.229-0.998-7.226-2.993l-0.108-0.107   c-3.989-3.99-3.989-10.461,0-14.45l7.994-7.994c1.995-1.996,4.609-2.994,7.225-2.994c2.616,0,5.231,0.998,7.228,2.994l0.105,0.107   c3.992,3.99,3.992,10.461,0,14.451l-7.992,7.993C60.437,188.56,57.822,189.559,55.207,189.559z M84.18,211.577   c-1.996,1.996-4.611,2.994-7.227,2.994c-2.615,0-5.23-0.998-7.227-2.994l-0.106-0.107c-3.991-3.991-3.991-10.46,0-14.451   l18.912-18.912c1.997-1.996,4.612-2.994,7.228-2.994c2.616,0,5.231,0.998,7.227,2.994l0.107,0.106c3.99,3.991,3.99,10.462,0,14.451   L84.18,211.577z M108.71,234.933c-1.994,1.995-4.609,2.992-7.225,2.992c-2.616,0-5.231-0.997-7.226-2.992l-0.108-0.108   c-3.991-3.99-3.991-10.461,0-14.452l12.239-12.241c1.996-1.995,4.61-2.992,7.226-2.992c2.615,0,5.23,0.997,7.227,2.992l0.108,0.108   c3.989,3.99,3.989,10.462,0,14.452L108.71,234.933z M125.926,261.367c-2.615,0-5.229-0.998-7.225-2.993l-0.108-0.106   c-3.992-3.991-3.992-10.463,0-14.453l5.567-5.567c1.996-1.995,4.611-2.993,7.227-2.993c2.615,0,5.231,0.998,7.227,2.993   l0.107,0.108c3.989,3.991,3.989,10.461,0,14.451l-5.568,5.567C131.156,260.369,128.541,261.367,125.926,261.367z M159.242,269.506   c-2.684,3.391-6.599,5.086-10.515,5.086c-3.43,0-6.86-1.301-9.462-3.902l-1.034-1.034c1.212-0.81,2.353-1.743,3.406-2.797   l5.566-5.565c3.92-3.921,6.047-8.956,6.419-14.095l4.28,4.279C162.752,256.326,163.498,264.129,159.242,269.506z M261.23,186.193   c5.573,5.572,5.179,14.941-1.183,19.977c-2.383,1.886-5.24,2.789-8.107,2.789c-3.604,0-7.221-1.428-9.921-4.129l-48.518-48.518   c-1.26-1.26-2.91-1.89-4.561-1.89c-1.65,0-3.302,0.63-4.561,1.89l0,0c-2.551,2.55-2.551,6.685,0,9.234l62.373,62.374   c5.572,5.572,5.178,14.941-1.183,19.977c-2.383,1.885-5.24,2.789-8.107,2.789c-3.604,0-7.221-1.429-9.921-4.129l-62.081-62.081   c-1.276-1.276-2.949-1.915-4.623-1.915c-1.673,0-3.346,0.639-4.623,1.915c-2.516,2.516-2.516,6.595,0,9.11l48.811,48.811   c5.572,5.572,5.178,14.941-1.183,19.976c-2.383,1.886-5.24,2.789-8.107,2.789c-3.604,0-7.22-1.428-9.921-4.129l-50.44-50.441   c-0.888-3.974-2.853-7.753-5.938-10.839l-0.109-0.109c-3.482-3.48-7.919-5.639-12.713-6.282c0.953-2.499,1.472-5.169,1.472-7.924   c0-5.934-2.311-11.515-6.507-15.711c-0.012-0.012-0.024-0.024-0.036-0.036l-0.094-0.093c-4.194-4.184-9.766-6.487-15.69-6.487   c-3.925,0-7.685,1.03-11.001,2.929c-0.949-3.883-2.913-7.455-5.804-10.36l-0.072-0.073c-0.026-0.026-0.052-0.053-0.078-0.079   c-4.197-4.197-9.777-6.509-15.713-6.509c-5.937,0-11.517,2.313-15.713,6.512l-0.035,0.035c-0.775-2.412-1.433-4.802-1.946-7.161   c-0.181-0.825-0.528-1.601-1.043-2.271l-31.209-34.843c-1.716-2.234-1.512-5.394,0.477-7.388l69.562-69.671   c1.093-1.096,2.532-1.649,3.978-1.649c1.301,0,2.604,0.449,3.661,1.358l0.551,0.517c-4.658,4.583-7.555,10.95-7.555,17.984   c0,13.893,11.277,25.199,25.158,25.248l44.313,0.562L261.23,186.193z M283.901,101.163l-2.391,6.024   c-0.515,0.67-0.862,1.445-1.043,2.271c-3.38,15.511-15.294,33.305-28.649,50.322c-16.99-16.99-93.427-93.465-93.427-93.465   l-49.324-0.626c-7.286,0-13.248-5.962-13.248-13.248c0-7.286,5.962-13.247,13.248-13.247l92.483-12.72   c0.01-0.001,0.019-0.006,0.026-0.012l4.646-2.65c1.057-0.909,2.36-1.358,3.661-1.358c1.444,0,2.885,0.554,3.978,1.649   l69.562,69.671C285.413,95.769,285.617,98.929,283.901,101.163z"
   id="path2" />
</g>
<g
   id="g6">
</g>
<g
   id="g8">
</g>
<g
   id="g10">
</g>
<g
   id="g12">
</g>
<g
   id="g14">
</g>
<g
   id="g16">
</g>
<g
   id="g18">
</g>
<g
   id="g20">
</g>
<g
   id="g22">
</g>
<g
   id="g24">
</g>
<g
   id="g26">
</g>
<g
   id="g28">
</g>
<g
   id="g30">
</g>
<g
   id="g32">
</g>
<g
   id="g34">
</g>
<path
   style="fill:#ffffff;stroke-width:0.455594"
   d="m 145.32939,286.10333 c -5.9503,-0.79763 -10.19792,-3.1346 -16.16696,-8.89478 -4.14888,-4.00371 -4.43315,-4.19003 -6.80335,-4.45916 -3.77398,-0.42853 -8.72398,-3.00061 -11.91409,-6.19071 -3.19809,-3.19809 -5.76604,-8.14515 -6.18446,-11.9141 -0.34035,-3.06587 -1.88495,-4.97931 -4.01946,-4.97931 -4.50901,0 -10.287977,-2.67583 -14.176072,-6.56393 -4.058395,-4.05839 -6.563923,-9.58408 -6.563923,-14.47607 V 226.43 h -1.987987 c -12.296588,0 -22.614065,-10.13249 -22.614065,-22.2086 v -2.71435 l -3.074149,-0.5094 c -11.661183,-1.93232 -20.210665,-13.38909 -18.455121,-24.73086 0.439785,-2.84126 2.653822,-8.2743 4.259783,-10.45312 0.407561,-0.55294 0.113921,-1.95462 -1.356005,-6.47281 -1.03192,-3.17187 -1.876218,-5.98724 -1.876218,-6.25638 0,-0.26914 -6.816818,-8.09334 -15.148485,-17.38712 -8.331667,-9.29377 -15.6987196,-17.727 -16.3712273,-18.74053 -3.0843588,-4.64838 -3.39753204,-11.34688 -0.7791596,-16.66555 1.2785543,-2.597115 5.2742986,-6.754816 38.1624739,-39.709283 41.423387,-41.50688 38.730752,-39.194738 46.037233,-39.53177 5.567823,-0.256831 8.284035,0.822084 13.825732,5.49176 l 2.03186,1.712139 3.36556,-0.491598 c 1.85106,-0.270379 23.42635,-3.236476 47.9451,-6.591327 44.19308,-6.04685 44.59808,-6.111624 46.71779,-7.471838 3.2536,-2.087827 5.80897,-2.846499 9.61664,-2.85511 4.1635,-0.0094 7.69773,1.205445 10.8213,3.719725 1.18971,0.95765 18.17079,17.805416 37.73573,37.439481 33.25096,33.368445 35.65443,35.885818 36.82626,38.571446 0.81891,1.876818 1.33741,4.009647 1.49523,6.150513 0.26256,3.561802 0.11503,4.120732 -3.39028,12.844832 -1.0068,2.50576 -2.50617,6.69842 -3.33192,9.31702 -3.64054,11.54466 -13.69722,28.5912 -26.75695,45.35421 l -3.19449,4.10034 6.23363,6.37831 c 4.3066,4.40655 6.67518,7.22335 7.66195,9.11187 7.23237,13.8417 0.48717,30.60528 -14.31973,35.58825 -1.59116,0.53547 -3.01239,1.09296 -3.15829,1.23887 -0.1459,0.14589 0.25514,0.88375 0.8912,1.63966 5.3867,6.40173 6.48038,18.35147 2.41403,26.37602 -6.21027,12.25539 -21.42049,17.20142 -33.70349,10.95965 -1.5106,-0.76763 -3.36554,-1.88013 -4.12209,-2.47223 l -1.37556,-1.07653 -1.02922,3.16992 c -5.10368,15.71888 -22.9937,22.41461 -37.03292,13.86038 -1.37817,-0.83973 -3.94967,-2.84972 -5.71444,-4.46664 l -3.20868,-2.93985 -1.0062,3.19352 c -1.18276,3.75388 -4.37408,8.76114 -7.06796,11.08979 -5.53996,4.78889 -13.03426,7.06283 -20.13855,6.11052 z m 9.61343,-12.8746 c 4.58655,-2.33554 7.1687,-6.63841 7.1687,-11.94583 0,-4.35232 -1.15582,-6.77434 -5.2456,-10.99215 l -3.29044,-3.39344 -0.58384,2.86466 c -1.09244,5.36013 -2.90835,8.22762 -9.15947,14.46365 l -5.69002,5.67629 1.95175,1.73202 c 2.54412,2.25771 5.29758,3.12077 9.34079,2.92785 2.31066,-0.11026 3.82794,-0.47746 5.50813,-1.33305 z m 46.20173,-9.0194 c 6.96282,-3.14527 9.83903,-11.3121 6.53795,-18.56414 -0.48224,-1.05942 -10.26649,-11.21708 -26.62747,-27.64367 -17.63306,-17.70378 -25.96489,-26.37546 -26.17865,-27.24645 -1.0857,-4.42373 2.87766,-8.72918 7.2026,-7.8243 1.18153,0.24721 8.03286,6.84889 34.05404,32.81322 36.53666,36.45681 34.85309,35.02709 41.23122,35.01439 5.38834,-0.0108 9.46982,-2.47577 11.99362,-7.24363 1.03078,-1.9473 1.20581,-2.84008 1.20581,-6.15051 0,-3.32251 -0.17261,-4.1961 -1.21529,-6.15051 -0.88995,-1.66816 -9.7688,-10.81527 -33.1674,-34.16952 -17.57367,-17.54035 -32.24643,-32.44516 -32.60614,-33.1218 -0.35971,-0.67665 -0.65403,-2.16603 -0.65403,-3.30975 0,-3.99082 4.10049,-6.78649 7.99181,-5.44873 1.33843,0.46014 7.58063,6.43016 27.50841,26.30898 24.31883,24.25908 25.92629,25.7684 28.41387,26.67916 5.56095,2.03598 11.01426,0.80605 14.8021,-3.33845 3.88782,-4.25389 4.75797,-9.8035 2.36214,-15.06508 -0.85507,-1.87787 -10.52038,-11.77131 -55.74122,-57.05692 l -54.70678,-54.785122 -12.30908,-0.0335 c -6.77,-0.01842 -17.94705,-0.197422 -24.83791,-0.397778 C 102.89066,77.082315 101.26658,76.801141 96.552106,74.038272 83.364258,66.309683 80.124127,48.394995 89.782359,36.608393 c 0.860284,-1.04986 1.564149,-2.107244 1.564149,-2.349742 0,-0.632211 -2.881648,-1.911509 -4.305719,-1.911509 -0.663659,0 -1.760268,0.293834 -2.436911,0.652965 -0.676643,0.35913 -17.25043,16.709244 -36.830643,36.333587 C 8.9840926,108.21026 10.693668,106.26035 12.21736,109.88794 c 0.347604,0.82758 4.407739,5.70753 9.022521,10.84435 23.040026,25.64637 23.5557,26.2526 24.08698,28.31696 0.280263,1.08901 0.810624,3.05253 1.17858,4.36339 l 0.669007,2.38337 2.734801,-2.01324 c 3.970028,-2.92258 7.090981,-3.99476 12.350685,-4.243 3.703074,-0.17478 4.882806,-0.0468 7.45219,0.8082 6.281792,2.09045 11.767808,7.29145 13.921545,13.19827 1.016429,2.78765 1.268299,3.0747 2.040699,2.32572 1.158301,-1.12318 6.254397,-2.31387 9.903214,-2.31387 6.085668,0 11.140608,1.95453 15.215308,5.88311 6.41446,6.18445 8.45828,14.40913 5.80138,23.34584 -0.17412,0.58568 0.19341,0.82493 1.64362,1.06994 2.46499,0.41645 7.49639,2.96229 9.87029,4.99427 2.44553,2.09328 5.32152,6.41202 6.30178,9.4631 0.72121,2.24479 2.41586,4.04716 26.57686,28.26633 29.18245,29.25269 28.37003,28.58293 34.64948,28.56476 2.48364,-0.007 4.03579,-0.27097 5.50825,-0.93611 z m -71.80456,-3.19622 c 2.14501,-0.59557 10.24915,-8.2226 11.46947,-10.79423 3.31377,-6.98326 -1.76823,-15.14268 -9.42358,-15.13006 -3.49576,0.006 -5.03581,0.86475 -9.6854,5.40225 -4.99968,4.87914 -6.18267,6.87227 -6.19751,10.44171 -0.0304,7.30358 6.55617,12.1019 13.83702,10.08033 z m -23.0067,-24.08767 c 0.90331,-0.46501 5.03693,-4.29807 9.18583,-8.51792 7.86013,-7.99454 8.63012,-9.14655 8.63012,-12.91177 0,-3.85473 -2.67186,-8.05084 -6.12508,-9.61934 -2.2665,-1.02947 -6.07427,-1.10187 -8.35465,-0.15884 -1.06059,0.4386 -4.63174,3.63017 -9.55222,8.53689 -6.675271,6.65662 -7.969854,8.17203 -8.598782,10.06556 -2.386846,7.18611 3.463568,14.50759 10.942232,13.69362 1.2266,-0.1335 2.96924,-0.62319 3.87255,-1.0882 z m -25.109105,-23.0478 c 2.107288,-0.87947 22.555625,-21.08617 23.833625,-23.55198 3.63188,-7.00747 -1.48322,-15.38254 -9.383164,-15.36328 -4.179041,0.0102 -5.541826,1.01511 -17.155981,12.65089 -10.370626,10.38992 -10.806943,10.89883 -11.552773,13.47486 -1.538849,5.31506 0.851664,10.66947 5.70128,12.77008 2.082445,0.90201 6.418689,0.91186 8.557013,0.0194 z M 59.910552,188.58993 c 0.877018,-0.44389 4.084264,-3.33615 7.12721,-6.42725 5.765591,-5.85682 6.535517,-7.13614 6.535517,-10.8595 0,-5.63698 -4.839333,-10.47866 -10.473572,-10.47866 -3.572386,0 -5.032796,0.89515 -11.035255,6.76398 -6.66296,6.51462 -7.409718,7.83007 -7.110713,12.52584 0.141048,2.2151 0.488019,3.38376 1.425006,4.79964 2.945576,4.45107 8.837813,6.05171 13.531807,3.67595 z m 197.068958,-35.1688 c 12.18196,-16.21458 19.82809,-29.87485 22.9505,-41.00248 0.52889,-1.88484 1.98999,-5.81842 3.24689,-8.74131 1.89418,-4.404844 2.235,-5.602846 1.99153,-7.000206 -0.25983,-1.49128 -4.46092,-5.859065 -36.39583,-37.83996 -35.94115,-35.992892 -36.11143,-36.155135 -38.19223,-36.38967 -1.85951,-0.209595 -2.48277,-0.01049 -5.64907,1.804652 l -3.55895,2.040239 -47.60953,6.483795 c -26.18524,3.566088 -48.52633,6.807886 -49.64686,7.203995 -1.12054,0.396109 -2.99489,1.615879 -4.16524,2.7106 -7.014268,6.561028 -5.113682,17.857539 3.69404,21.956232 l 2.50854,1.167354 25.96883,0.368042 25.96883,0.368042 46.69806,46.681445 c 25.68394,25.67479 46.83641,46.68144 47.00549,46.68144 0.16909,0 2.50234,-2.9215 5.185,-6.49221 z"
   id="path930" /></svg>
