<?xml version="1.0" encoding="UTF-8" standalone="no"?>
<!-- Generator: Adobe Illustrator 19.0.0, SVG Export Plug-In . SVG Version: 6.00 Build 0)  -->

<svg
   version="1.1"
   id="Capa_1"
   x="0px"
   y="0px"
   viewBox="0 0 490 490"
   style="enable-background:new 0 0 490 490;"
   xml:space="preserve"
   sodipodi:docname="list-icon.svg"
   inkscape:version="1.1.1 (3bf5ae0d25, 2021-09-20)"
   xmlns:inkscape="http://www.inkscape.org/namespaces/inkscape"
   xmlns:sodipodi="http://sodipodi.sourceforge.net/DTD/sodipodi-0.dtd"
   xmlns="http://www.w3.org/2000/svg"
   xmlns:svg="http://www.w3.org/2000/svg"><defs
   id="defs39" /><sodipodi:namedview
   id="namedview37"
   pagecolor="#505050"
   bordercolor="#eeeeee"
   borderopacity="1"
   inkscape:pageshadow="0"
   inkscape:pageopacity="0"
   inkscape:pagecheckerboard="0"
   showgrid="false"
   inkscape:zoom="1.3510204"
   inkscape:cx="245"
   inkscape:cy="244.62991"
   inkscape:window-width="1600"
   inkscape:window-height="847"
   inkscape:window-x="-8"
   inkscape:window-y="-8"
   inkscape:window-maximized="1"
   inkscape:current-layer="Capa_1" />
<g
   id="g4">
	<path
   d="M490,244.95c0,12.6-10.2,22.9-22.9,22.9H180.6c-12.6,0-22.9-10.2-22.9-22.9c0-12.6,10.2-22.9,22.9-22.9h286.5   C479.8,222.05,490,232.35,490,244.95z M55.4,189.55c-30.6,0-55.4,24.8-55.4,55.4s24.8,55.4,55.4,55.4s55.4-24.8,55.4-55.4   S86,189.55,55.4,189.55z M467.1,53.95H180.6c-12.6,0-22.9,10.2-22.9,22.9c0,12.6,10.2,22.9,22.9,22.9h286.5   c12.6,0,22.9-10.2,22.9-22.9S479.8,53.95,467.1,53.95z M55.4,21.45C24.8,21.45,0,46.25,0,76.85s24.8,55.4,55.4,55.4   s55.4-24.8,55.4-55.4S86,21.45,55.4,21.45z M467.1,390.25H180.6c-12.6,0-22.9,10.2-22.9,22.9c0,12.6,10.2,22.9,22.9,22.9h286.5   c12.6,0,22.9-10.2,22.9-22.9S479.8,390.25,467.1,390.25z M55.4,357.75c-30.6,0-55.4,24.8-55.4,55.4s24.8,55.4,55.4,55.4   s55.4-24.8,55.4-55.4C110.8,382.45,86,357.75,55.4,357.75z"
   id="path2" />
</g>
<g
   id="g6">
</g>
<g
   id="g8">
</g>
<g
   id="g10">
</g>
<g
   id="g12">
</g>
<g
   id="g14">
</g>
<g
   id="g16">
</g>
<g
   id="g18">
</g>
<g
   id="g20">
</g>
<g
   id="g22">
</g>
<g
   id="g24">
</g>
<g
   id="g26">
</g>
<g
   id="g28">
</g>
<g
   id="g30">
</g>
<g
   id="g32">
</g>
<g
   id="g34">
</g>
<path
   style="fill:#ffffff;stroke-width:0.740181"
   d="M 49.073374,467.68394 C 33.94871,466.21634 18.455159,456.68471 9.6927411,443.45698 -8.5786743,415.8745 1.2453646,379.13434 30.9137,364.09438 c 24.611255,-12.47634 55.135111,-4.2699 70.48237,18.94943 10.07714,15.246 11.68906,35.88954 4.10794,52.60935 -9.878289,21.7861 -32.088324,34.39281 -56.430636,32.03078 z"
   id="path893" /><path
   style="fill:#ffffff;stroke-width:0.740181"
   d="m 175.1131,434.79654 c -4.95164,-1.33812 -8.12614,-3.25603 -11.21803,-6.7775 -9.51701,-10.83927 -6.64668,-27.42747 5.97653,-34.53958 l 4.071,-2.29366 h 149.88671 149.8867 l 3.1252,1.66995 c 7.60488,4.06369 11.93329,10.55648 12.57705,18.8661 0.68566,8.85054 -4.55843,17.67555 -12.95289,21.79777 l -4.22972,2.07706 -146.55589,0.14186 c -126.67619,0.12262 -147.09994,-0.005 -150.56666,-0.942 z"
   id="path1008" /><path
   style="fill:#ffffff;stroke-width:0.927668"
   d="m 170.77625,276.51231 c -8.26659,-6.48858 -12.33663,-16.80579 -12.36215,-31.33698 -0.0127,-7.23524 0.33893,-9.85294 2.0653,-15.37511 3.44735,-11.02704 9.39998,-17.60323 17.76413,-19.62497 2.81929,-0.68148 60.09272,-0.983 148.91659,-0.78398 137.68599,0.30848 144.49543,0.42113 147.81015,2.44532 4.89446,2.98889 9.77156,10.16728 12.21249,17.97503 1.72259,5.51005 2.07445,8.13195 2.06174,15.36371 -0.0255,14.53119 -4.09554,24.8484 -12.36214,31.33698 l -4.51306,3.54239 H 323.82931 175.28932 Z"
   id="path1047" /><path
   style="fill:#ffffff;stroke-width:0.927668"
   d="m 171.88653,113.23943 c -8.26659,-6.48858 -12.33663,-16.805795 -12.36215,-31.336985 -0.0127,-7.23524 0.33893,-9.85294 2.0653,-15.37511 3.44735,-11.02704 9.39998,-17.60323 17.76413,-19.62497 2.81929,-0.68148 60.09272,-0.983 148.91659,-0.78398 137.68599,0.30848 144.49543,0.42113 147.81015,2.44532 4.89446,2.98889 9.77156,10.16728 12.21249,17.97503 1.72259,5.51005 2.07445,8.13195 2.06174,15.36371 -0.0255,14.53119 -4.09554,24.848405 -12.36214,31.336985 l -4.51306,3.54239 H 324.93959 176.3996 Z"
   id="path1047-3" /><path
   style="fill:#ffffff;stroke-width:0.927668"
   d="m 171.14635,450.02191 c -8.26659,-6.48858 -12.33663,-16.80579 -12.36215,-31.33698 -0.0127,-7.23524 0.33893,-9.85294 2.0653,-15.37511 3.44735,-11.02704 9.39998,-17.60323 17.76413,-19.62497 2.81929,-0.68148 60.09272,-0.983 148.91659,-0.78398 137.68599,0.30848 144.49543,0.42113 147.81015,2.44532 4.89446,2.98889 9.77156,10.16728 12.21249,17.97503 1.72259,5.51005 2.07445,8.13195 2.06174,15.36371 -0.0255,14.53119 -4.09554,24.8484 -12.36214,31.33698 l -4.51306,3.54239 H 324.19941 175.65942 Z"
   id="path1047-3-9" /><path
   style="fill:#ffffff;stroke-width:0.740181"
   d="M 43.670695,298.68709 C 14.675437,292.36296 -4.4251733,263.05627 1.5442538,234.05112 3.818112,223.00256 8.5484216,214.44179 16.966471,206.14048 c 10.846152,-10.69574 21.110734,-15.1345 36.38348,-15.73349 7.449857,-0.29217 9.966609,-0.0907 15.106876,1.20913 31.553073,7.9791 49.293803,40.49939 38.847913,71.21159 -4.72886,13.90339 -14.520857,24.8393 -28.105344,31.3886 -3.663898,1.76643 -9.058954,3.7394 -11.989016,4.3844 -6.335602,1.39464 -17.356049,1.43508 -23.539685,0.0864 z"
   id="path1086" /><path
   style="fill:#ffffff;stroke-width:0.740181"
   d="M 42.693096,130.31247 C 19.183535,124.53855 2.0870509,104.07258 0.60086324,79.924423 -1.4609919,46.422595 27.542466,18.829543 61.203879,22.268465 c 30.256605,3.091079 52.805201,31.48461 48.716751,61.344877 -3.22537,23.556848 -20.443462,42.170028 -43.536806,47.064388 -6.701677,1.42033 -17.071296,1.26046 -23.690728,-0.36526 z"
   id="path1125" /><path
   style="fill:#ffffff;stroke-width:0.740181"
   d="m 173.35243,98.120456 c -9.70619,-3.475225 -16.24554,-13.619002 -15.08683,-23.402551 0.93516,-7.895968 5.79129,-14.732926 12.96753,-18.257039 l 4.18983,-2.057543 h 148.40635 148.40634 l 3.42141,1.582011 c 17.36716,8.030301 18.56419,31.484243 2.07256,40.608322 l -4.01361,2.220543 -148.77643,0.156304 C 201.09839,99.10061 175.69206,98.95814 173.35243,98.120456 Z"
   id="path1164" /></svg>
