<?xml version="1.0" encoding="UTF-8" standalone="no"?>
<!-- Generator: Adobe Illustrator 18.0.0, SVG Export Plug-In . SVG Version: 6.00 Build 0)  -->

<svg
   version="1.1"
   id="Capa_1"
   x="0px"
   y="0px"
   viewBox="0 0 419 419"
   style="enable-background:new 0 0 419 419;"
   xml:space="preserve"
   sodipodi:docname="logo-main-color.svg"
   inkscape:version="1.1.1 (3bf5ae0d25, 2021-09-20)"
   xmlns:inkscape="http://www.inkscape.org/namespaces/inkscape"
   xmlns:sodipodi="http://sodipodi.sourceforge.net/DTD/sodipodi-0.dtd"
   xmlns="http://www.w3.org/2000/svg"
   xmlns:svg="http://www.w3.org/2000/svg"><defs
   id="defs229" /><sodipodi:namedview
   id="namedview227"
   pagecolor="#505050"
   bordercolor="#eeeeee"
   borderopacity="1"
   inkscape:pageshadow="0"
   inkscape:pageopacity="0"
   inkscape:pagecheckerboard="0"
   showgrid="false"
   inkscape:zoom="1.5011933"
   inkscape:cx="78.271065"
   inkscape:cy="209.5"
   inkscape:window-width="1600"
   inkscape:window-height="837"
   inkscape:window-x="-8"
   inkscape:window-y="-8"
   inkscape:window-maximized="1"
   inkscape:current-layer="Capa_1" />
<path
   d="M381.675,20.803c-20.584,0-37.33,16.747-37.33,37.331c0,4.819,0.951,9.628,2.772,14.085l-61.297,61.297  c-15.555-11.566-34.813-18.42-55.642-18.42c-16.635,0-32.861,4.426-47.175,12.833l-38.512-44.224  c2.607-5.18,3.973-10.901,3.973-16.731c0-20.58-16.745-37.323-37.327-37.323c-20.582,0-37.327,16.743-37.327,37.323  c0,20.584,16.745,37.331,37.327,37.331c3.89,0,7.699-0.594,11.365-1.77l38.083,43.729c-15.413,17.185-23.852,39.139-23.852,62.276  c0,9.273,1.376,18.442,4.094,27.305l-83.869,59.693c-5.893-3.667-12.614-5.59-19.63-5.59C16.745,289.949,0,306.692,0,327.273  c0,20.584,16.745,37.33,37.328,37.33c20.582,0,37.327-16.746,37.327-37.33c0-2.755-0.303-5.486-0.904-8.159l79.983-56.924  c10.309,14.638,24.691,26.114,41.197,32.872l-8.918,25.146c-18.973,1.734-33.912,17.78-33.912,37.17  c0,20.582,16.745,37.326,37.327,37.326c20.582,0,37.328-16.744,37.328-37.326c0-10.949-4.855-21.33-13.139-28.4l9.668-27.26  c2.343,0.178,4.65,0.268,6.893,0.268c11.969,0,23.61-2.249,34.657-6.691l40.105,48.345c-2.775,5.309-4.229,11.201-4.229,17.227  c0,20.584,16.743,37.331,37.322,37.331c20.585,0,37.332-16.747,37.332-37.331c0-20.58-16.747-37.323-37.332-37.323  c-3.691,0-7.318,0.539-10.822,1.606l-37.223-44.87c21.434-17.844,33.632-43.73,33.632-71.738c0-20.273-6.492-39.057-17.502-54.387  l61.468-61.468c4.458,1.819,9.269,2.771,14.089,2.771c20.581,0,37.325-16.743,37.325-37.323  C419,37.55,402.256,20.803,381.675,20.803z M230.178,158.153c27.784,0,50.388,22.604,50.388,50.388  c0,27.784-22.603,50.388-50.388,50.388c-27.785,0-50.39-22.604-50.39-50.388C179.788,180.757,202.393,158.153,230.178,158.153z"
   id="path194" />
<g
   id="g196">
</g>
<g
   id="g198">
</g>
<g
   id="g200">
</g>
<g
   id="g202">
</g>
<g
   id="g204">
</g>
<g
   id="g206">
</g>
<g
   id="g208">
</g>
<g
   id="g210">
</g>
<g
   id="g212">
</g>
<g
   id="g214">
</g>
<g
   id="g216">
</g>
<g
   id="g218">
</g>
<g
   id="g220">
</g>
<g
   id="g222">
</g>
<g
   id="g224">
</g>
<path
   style="fill:#ffffff;stroke:none;stroke-width:0.666137;fill-opacity:1"
   d="m 328.82091,396.63271 c -21.29498,-5.72753 -33.19884,-29.02321 -25.08953,-49.09983 l 1.61713,-4.00361 -19.11384,-23.02574 c -10.51261,-12.66416 -19.58081,-23.59757 -20.15155,-24.29646 -1.01613,-1.24429 -1.14631,-1.23425 -6.25899,0.48293 -9.25409,3.10814 -17.85606,4.54905 -27.74198,4.64706 l -9.05933,0.0898 -4.763,13.41893 c -2.61965,7.38041 -4.763,13.63338 -4.763,13.89548 0,0.26209 1.4295,2.04063 3.17667,3.95231 6.27761,6.86871 9.47993,15.20856 9.47993,24.68876 0,2.96024 -0.459,7.14445 -1.01998,9.29824 -3.04232,11.68023 -12.51411,21.78839 -24.16636,25.78998 -5.91908,2.03272 -16.53091,2.15874 -22.33855,0.26526 -7.8504,-2.55949 -16.03878,-8.87326 -20.47635,-15.78861 -7.41129,-11.54949 -7.39374,-27.60759 0.0428,-39.19649 4.83064,-7.5279 13.98302,-14.11077 22.32803,-16.05947 6.16028,-1.43854 5.68345,-0.79789 10.18677,-13.68651 2.28818,-6.54884 4.15467,-12.22376 4.14776,-12.61096 -0.007,-0.38718 -2.17442,-1.73611 -4.81667,-2.99761 -13.07168,-6.24088 -26.64192,-17.46325 -34.86765,-28.83499 l -1.36887,-1.89241 -39.93161,28.43993 -39.931604,28.43993 0.228092,6.09412 c 0.416376,11.12459 -3.239955,20.92832 -10.589028,28.39237 -14.566321,14.79424 -37.58499,14.84863 -52.310015,0.1236 -14.500914,-14.50091 -14.4807366,-37.19788 0.046,-51.74723 11.238098,-11.25559 27.001859,-14.12829 41.550791,-7.57199 2.331469,1.05065 4.579681,1.70295 4.996025,1.44955 0.678015,-0.41265 21.612256,-15.29226 67.586609,-48.03913 12.85591,-9.15708 15.48584,-11.3 15.24009,-12.41793 -3.25844,-14.82236 -3.33425,-15.42108 -3.33425,-26.33121 0,-8.71828 0.29725,-12.39476 1.43739,-17.77813 3.23838,-15.29041 10.23218,-30.09964 19.20541,-40.66708 1.86804,-2.19992 2.77174,-3.79773 2.44603,-4.32475 -0.28411,-0.4597 -8.76084,-10.28061 -18.83718,-21.82426 -18.05865,-20.68833 -18.35433,-20.98571 -20.67771,-20.79681 -1.2964,0.1054 -5.80435,0.2331 -10.01767,0.28377 -6.66422,0.0802 -8.22503,-0.12157 -12.000505,-1.55096 C 73.088422,92.066037 65.95918,60.265493 85.263895,40.967409 96.756333,29.478924 112.48836,26.881684 127.35769,34.018042 c 9.07497,4.355423 15.73654,12.168788 19.27151,22.60358 1.97572,5.83212 1.66595,16.243146 -0.66915,22.488568 l -1.80811,4.835946 18.10869,20.810314 c 9.95979,11.44568 18.65449,21.38814 19.32157,22.09437 1.19299,1.26298 1.33084,1.22844 8.40358,-2.10566 13.92807,-6.56572 25.03282,-9.07472 40.16446,-9.07472 11.2826,0 19.14279,1.23113 29.07305,4.55365 7.54233,2.52356 16.51986,6.88749 22.55254,10.9627 l 3.99683,2.69993 30.75909,-30.80545 30.7591,-30.805435 -1.33373,-4.996026 c -1.04055,-3.897778 -1.26175,-6.313922 -1.00628,-10.991256 1.74576,-31.962864 40.15007,-46.7110297 62.67673,-24.069354 11.52685,11.5857 14.16048,27.314042 7.04191,42.055046 -4.35356,9.015259 -12.67349,16.166992 -22.28728,19.157932 -6.03921,1.878852 -14.86263,1.958595 -20.90383,0.188923 l -4.22274,-1.236982 -30.5829,30.577482 c -16.8206,16.81762 -30.58162,30.87847 -30.58005,31.24633 0.001,0.36788 0.91804,2.01779 2.0366,3.66647 5.90526,8.70395 11.32644,22.29487 13.69371,34.33021 1.57548,8.00985 1.58325,24.28373 0.0156,32.78869 -3.41334,18.51902 -12.01108,34.95413 -25.43911,48.62841 l -6.73292,6.8564 18.64319,22.46484 c 10.25375,12.35566 18.91744,22.38243 19.25263,22.28171 0.3352,-0.10071 2.83526,-0.52916 5.55571,-0.95209 17.001,-2.64309 34.21969,8.27897 40.06013,25.41069 2.26857,6.65442 2.12314,15.91787 -0.36198,23.0564 -5.30038,15.22534 -19.10594,25.0307 -35.05839,24.90013 -2.94562,-0.0241 -6.96727,-0.4773 -8.93699,-1.00708 z M 240.66998,258.09122 c 3.12027,-0.62956 7.86789,-2.35959 12.10235,-4.41007 6.11054,-2.95897 7.71942,-4.12567 13.076,-9.48226 5.35303,-5.35302 6.52575,-6.96953 9.48622,-13.07601 4.38914,-9.05339 5.75276,-15.60446 5.25707,-25.2561 -1.33424,-25.97921 -21.52538,-46.31367 -47.44377,-47.78053 -23.88408,-1.35173 -44.39822,13.10066 -51.72747,36.44247 -1.34463,4.2823 -1.55616,6.28454 -1.51131,14.30514 0.0461,8.24299 0.2584,9.94474 1.82834,14.65501 6.06419,18.19438 20.76584,31.3097 39.137,34.91405 4.82077,0.94582 14.30304,0.79651 19.79557,-0.3117 z"
   id="path497" /><path
   style="fill:#0b00b6;fill-opacity:1;stroke-width:0.666137"
   d="m 327.07313,395.50148 c -19.66443,-6.72881 -29.92022,-27.1161 -23.36448,-46.44584 1.49485,-4.4076 1.75,-5.87977 1.15155,-6.64431 -0.42283,-0.54018 -9.40669,-11.40654 -19.96414,-24.14746 -12.06093,-14.55536 -19.63544,-23.1653 -20.37942,-23.1653 -0.65124,0 -2.95115,0.60796 -5.11092,1.35103 -7.30289,2.51257 -16.3459,4.01294 -26.71542,4.43251 l -10.11652,0.40932 -4.70502,13.61437 c -2.58775,7.48791 -4.70501,13.76578 -4.70501,13.95084 0,0.18505 1.6079,2.2736 3.57311,4.6412 10.01089,12.06073 11.82789,26.26351 5.10914,39.93624 -4.8245,9.81791 -14.8218,17.60446 -25.19171,19.62096 -5.63774,1.0963 -14.82111,0.49741 -19.40213,-1.26529 -11.02264,-4.24134 -20.18968,-14.24001 -23.02073,-25.10916 -1.30618,-5.01475 -1.30618,-13.58172 0,-18.59647 3.17202,-12.17819 13.62209,-22.38313 26.62469,-26.00013 2.20726,-0.614 4.6228,-1.79799 5.3949,-2.64433 1.28911,-1.41308 7.51153,-17.97976 8.54236,-22.74338 0.43618,-2.01563 0.32851,-2.12741 -4.41361,-4.58192 -12.37223,-6.40388 -25.54698,-17.12532 -34.55005,-28.1164 l -2.2852,-2.7898 -39.63514,28.3015 -39.635135,28.30151 -0.420666,7.46206 c -0.231362,4.10414 -0.77397,8.96071 -1.2058,10.79237 -3.047383,12.92613 -15.238141,24.46623 -28.548332,27.02461 -20.035747,3.85111 -39.9057222,-10.6193 -42.9128997,-31.25153 -1.60523529,-11.0135 2.1286984,-21.41451 10.7991677,-30.08145 11.028071,-11.0236 25.00519,-13.80446 39.814757,-7.92146 2.670706,1.06091 5.142041,1.92894 5.491853,1.92894 0.349813,0 14.205982,-9.64587 30.79148,-21.43526 44.814895,-31.85556 47.758145,-33.98135 50.561585,-36.51864 l 2.57605,-2.33148 -1.72844,-8.32671 c -1.60985,-7.75537 -1.70655,-9.21799 -1.40939,-21.31637 0.27652,-11.25819 0.54366,-13.78881 2.00408,-18.9849 3.67578,-13.07822 9.10908,-24.44939 16.15421,-33.80857 2.65829,-3.53144 4.30532,-6.33881 4.17657,-7.11898 -0.2224,-1.3476 -32.46849,-38.72507 -35.89894,-41.61161 -1.92618,-1.62077 -2.15922,-1.65097 -9.78887,-1.2685 C 101.47335,103.70826 94.498302,101.17573 85.753879,92.522674 77.640567,84.494136 73.934688,74.922703 74.831548,64.312818 76.11193,49.165941 87.553814,35.458626 102.16432,31.568303 c 11.57103,-3.081005 25.53373,0.882026 34.47372,9.784668 10.3499,10.30666 13.58259,25.053056 8.49852,38.76719 -1.26526,3.412969 -1.3155,3.97722 -0.4449,4.996026 16.73172,19.579923 37.49163,42.782063 38.27886,42.782063 0.57218,0 3.77777,-1.2382 7.12353,-2.75156 8.05321,-3.64262 16.0708,-6.32805 23.04098,-7.71738 7.81583,-1.5579 27.59233,-1.52708 34.66783,0.054 11.30419,2.52604 23.76066,7.62236 32.58799,13.33273 2.61646,1.69259 4.9739,3.07743 5.23873,3.07743 0.26483,0 14.32858,-13.86397 31.25276,-30.80883 l 30.77124,-30.808819 -1.33409,-5.329093 c -5.27273,-21.062146 9.04989,-41.801536 31.01648,-44.912389 16.52388,-2.34007 33.43265,8.545227 39.12758,25.189032 1.97331,5.767136 2.09478,15.320215 0.26348,20.722555 -4.03968,11.917129 -12.58212,20.937157 -23.37329,24.680053 -6.02343,2.089211 -14.76054,2.395121 -20.98331,0.734688 l -4.99603,-1.333099 -30.18374,30.092322 c -16.60106,16.55078 -30.47522,30.61625 -30.83148,31.25661 -0.50306,0.90424 0.1768,2.56525 3.044,7.43705 4.25934,7.23724 8.18441,16.64944 10.71935,25.70471 1.54681,5.52543 1.81318,7.93404 2.09955,18.9849 0.3793,14.63696 -0.45026,21.07812 -4.13174,32.08123 -4.40484,13.16504 -11.11005,23.98525 -22.01253,35.52162 l -6.96315,7.368 11.4437,13.8071 c 20.80078,25.09664 26.58393,31.57674 27.7654,31.11151 2.30117,-0.90612 13.16897,-1.13356 16.90998,-0.35388 13.26496,2.7646 25.74053,15.2402 28.50486,28.50493 1.16439,5.58735 0.44633,14.1845 -1.64989,19.75364 -4.22371,11.22135 -13.59679,19.80136 -24.82717,22.7265 -5.79199,1.50862 -14.94517,1.2718 -20.18841,-0.52235 z m -85.2655,-137.4131 c 2.38144,-0.56051 7.44815,-2.50796 11.25935,-4.32766 6.16109,-2.94168 7.60526,-3.99094 13.02413,-9.46269 6.62746,-6.69214 9.49174,-11.36092 12.76637,-20.80916 1.67291,-4.82683 1.84428,-6.17667 1.81818,-14.32194 -0.0225,-7.02204 -0.33845,-10.12959 -1.44173,-14.17986 -4.0089,-14.71718 -15.51576,-27.84602 -29.32317,-33.45647 -11.94426,-4.85339 -27.48143,-4.89213 -39.27999,-0.0979 -13.68769,5.56181 -24.8346,17.95533 -29.36572,32.64984 -2.03801,6.60928 -2.03801,22.22733 0,28.83661 5.40021,17.51297 18.72924,30.23269 36.89473,35.20815 4.61888,1.26509 18.20259,1.24276 23.64785,-0.0389 z"
   id="path1702" /></svg>
