<?xml version="1.0" encoding="UTF-8" standalone="no"?>
<!-- Generator: Adobe Illustrator 16.0.0, SVG Export Plug-In . SVG Version: 6.00 Build 0)  -->

<svg
   version="1.1"
   id="Capa_1"
   x="0px"
   y="0px"
   width="208.798px"
   height="208.798px"
   viewBox="0 0 208.798 208.798"
   style="enable-background:new 0 0 208.798 208.798;"
   xml:space="preserve"
   sodipodi:docname="treehouse.svg"
   inkscape:version="1.1.1 (3bf5ae0d25, 2021-09-20)"
   xmlns:inkscape="http://www.inkscape.org/namespaces/inkscape"
   xmlns:sodipodi="http://sodipodi.sourceforge.net/DTD/sodipodi-0.dtd"
   xmlns="http://www.w3.org/2000/svg"
   xmlns:svg="http://www.w3.org/2000/svg"><defs
   id="defs39" /><sodipodi:namedview
   id="namedview37"
   pagecolor="#505050"
   bordercolor="#eeeeee"
   borderopacity="1"
   inkscape:pageshadow="0"
   inkscape:pageopacity="0"
   inkscape:pagecheckerboard="0"
   showgrid="false"
   inkscape:zoom="3.1226352"
   inkscape:cx="104.399"
   inkscape:cy="104.55912"
   inkscape:window-width="1600"
   inkscape:window-height="837"
   inkscape:window-x="-8"
   inkscape:window-y="-8"
   inkscape:window-maximized="1"
   inkscape:current-layer="Capa_1" />
<g
   id="g4">
	<path
   d="M100.684,65.725H83.838V48.882h16.845V65.725z M124.957,48.882h-16.846v16.843h16.846V48.882z M100.684,74.151H83.838   v16.846h16.845V74.151z M124.957,74.151h-16.846v16.846h16.846V74.151z M201.241,208.798c-28.531-5.745-61.573-9.043-96.843-9.043   c-35.263,0-68.316,3.298-96.842,9.043c17.597-19.263,49.994-32.722,87.763-34.619v-38.981H28.821V50.522L104.398,0l36.316,24.279   V4.486h24.21v35.964l15.049,10.06v84.669h-48.255l6.508,15.19l-24.761,10.615v13.193   C151.235,176.076,183.639,189.535,201.241,208.798z M95.32,117.039V95.631h18.158v21.408h48.339V60.231l-20.002-13.37h-1.111   v-0.745l-36.316-24.272l-57.42,38.387v56.808H95.32z M113.478,135.197v6.041l14.098-6.041H113.478z"
   id="path2" />
</g>
<g
   id="g6">
</g>
<g
   id="g8">
</g>
<g
   id="g10">
</g>
<g
   id="g12">
</g>
<g
   id="g14">
</g>
<g
   id="g16">
</g>
<g
   id="g18">
</g>
<g
   id="g20">
</g>
<g
   id="g22">
</g>
<g
   id="g24">
</g>
<g
   id="g26">
</g>
<g
   id="g28">
</g>
<g
   id="g30">
</g>
<g
   id="g32">
</g>
<g
   id="g34">
</g>
<path
   style="fill:#ffffff;stroke-width:0.320242"
   d="m 11.208482,205.41797 c 15.740074,-15.22725 41.780868,-26.22181 70.773556,-29.88095 2.818133,-0.35567 6.564968,-0.73407 8.326301,-0.84089 1.761333,-0.10682 3.670778,-0.26601 4.243211,-0.35377 l 1.040788,-0.15955 V 154.66254 135.14227 H 62.287135 28.981932 V 92.888634 50.635005 L 66.612437,25.477623 C 87.309215,11.641064 104.32443,0.32024234 104.42403,0.32024234 c 0.0996,0 8.25344,5.40408946 18.11964,12.00908766 9.8662,6.604998 17.99802,12.009088 18.0707,12.009088 0.0727,0 0.13214,-4.467381 0.13214,-9.927513 V 4.4833927 h 12.00909 12.00908 V 22.525676 40.56796 l 7.5257,5.015908 7.52569,5.015907 v 42.271246 42.271249 h -24.14812 -24.14812 l 3.17225,7.38811 c 1.74473,4.06346 3.17225,7.48848 3.17225,7.61114 0,0.12267 -5.5482,2.59598 -12.32933,5.49626 l -12.32933,5.27322 v 6.63591 6.6359 l 1.04078,0.15955 c 0.57244,0.0878 2.48188,0.24827 4.24321,0.35669 22.64256,1.39384 47.77835,9.03036 64.68896,19.65317 6.01261,3.77697 12.8104,9.12657 16.33236,12.85294 1.22369,1.29472 1.24297,1.34638 0.43101,1.15544 -2.5899,-0.60903 -14.72114,-2.63098 -22.36761,-3.72809 -47.42485,-6.80442 -101.179084,-6.68144 -148.819582,0.34048 -5.458245,0.80452 -16.925739,2.74397 -19.8987812,3.3654 -0.6697652,0.14 -0.1710372,-0.47914 2.3524652,-2.92042 z M 120.78769,138.31329 c 3.75589,-1.60247 6.82888,-2.97151 6.82888,-3.04231 0,-0.0708 -3.24245,-0.12871 -7.20545,-0.12871 h -7.20545 v 3.0423 c 0,2.1181 0.11439,3.0423 0.37657,3.0423 0.20712,0 3.44957,-1.31111 7.20545,-2.91358 z M 95.592338,106.48058 V 95.752459 h 8.806662 8.80667 v 10.728121 10.72812 h 24.33841 24.33842 V 88.617908 60.02712 l -9.91374,-6.635869 c -5.45256,-3.649728 -10.20816,-6.63587 -10.568,-6.63587 -0.35984,0 -0.65425,-0.192517 -0.65425,-0.427815 0,-0.356218 -35.83143,-24.551087 -36.35897,-24.551087 -0.0949,0 -13.064897,8.605797 -28.822271,19.123992 L 46.915502,60.024466 V 88.616579 117.2087 H 71.25392 95.592338 Z"
   id="path930" /><path
   style="fill:#ffffff;stroke-width:0.320242"
   d="m 84.063614,82.622523 v -8.326301 h 8.166179 8.166177 v 8.326301 8.326301 h -8.166177 -8.166179 z"
   id="path969" /><path
   style="fill:#ffffff;stroke-width:0.320242"
   d="m 108.40203,82.622523 v -8.326301 h 8.16618 8.16618 v 8.326301 8.326301 h -8.16618 -8.16618 z"
   id="path1008" /><path
   style="fill:#ffffff;stroke-width:0.320242"
   d="m 108.40203,57.323378 v -8.3263 h 8.16618 8.16618 v 8.3263 8.326301 h -8.16618 -8.16618 z"
   id="path1047" /><path
   style="fill:#ffffff;stroke-width:0.320242"
   d="m 84.063614,57.323378 v -8.3263 h 8.166179 8.166177 v 8.3263 8.326301 h -8.166177 -8.166179 z"
   id="path1086" /></svg>
