<?xml version="1.0" encoding="UTF-8" standalone="no"?>
<!-- Generator: Adobe Illustrator 18.0.0, SVG Export Plug-In . SVG Version: 6.00 Build 0)  -->

<svg
   version="1.1"
   id="Capa_1"
   x="0px"
   y="0px"
   viewBox="0 0 491.928 491.928"
   style="enable-background:new 0 0 491.928 491.928;"
   xml:space="preserve"
   sodipodi:docname="truck-white.svg"
   inkscape:version="1.1.1 (3bf5ae0d25, 2021-09-20)"
   xmlns:inkscape="http://www.inkscape.org/namespaces/inkscape"
   xmlns:sodipodi="http://sodipodi.sourceforge.net/DTD/sodipodi-0.dtd"
   xmlns="http://www.w3.org/2000/svg"
   xmlns:svg="http://www.w3.org/2000/svg"><defs
   id="defs37" /><sodipodi:namedview
   id="namedview35"
   pagecolor="#505050"
   bordercolor="#eeeeee"
   borderopacity="1"
   inkscape:pageshadow="0"
   inkscape:pageopacity="0"
   inkscape:pagecheckerboard="0"
   showgrid="false"
   inkscape:zoom="1.3253972"
   inkscape:cx="245.964"
   inkscape:cy="245.58676"
   inkscape:window-width="1600"
   inkscape:window-height="837"
   inkscape:window-x="-8"
   inkscape:window-y="-8"
   inkscape:window-maximized="1"
   inkscape:current-layer="Capa_1" />
<path
   d="M488.56,226.977l-83.433-83.433c-2.157-2.156-5.082-3.368-8.132-3.368H337.13V96.312c0-11.544-9.982-21.297-21.797-21.297  L21.297,75.015C9.554,75.015,0,84.568,0,96.312v243.949c0,11.744,9.554,21.298,21.297,21.298h34.987  c5.263,31.369,32.593,55.354,65.434,55.354s60.171-23.984,65.434-55.354h152.27c5.263,31.369,32.593,55.354,65.434,55.354  c32.847,0,60.182-23.992,65.437-55.371c0.113,0.004,0.223,0.018,0.337,0.018c11.744,0,21.297-9.554,21.297-21.297V235.108  C491.928,232.059,490.716,229.134,488.56,226.977z M392.231,163.176l62.716,62.716H337.13v-62.716H392.231z M56.459,338.56H23  V98.015l291.13,0.001V338.56H186.977c-5.662-30.888-32.76-54.375-65.259-54.375C89.22,284.185,62.121,307.672,56.459,338.56z   M121.718,393.913c-23.911,0-43.364-19.453-43.364-43.364c0-23.911,19.453-43.364,43.364-43.364  c23.911,0,43.364,19.453,43.364,43.364C165.083,374.46,145.629,393.913,121.718,393.913z M404.856,393.913  c-23.911,0-43.364-19.453-43.364-43.364c0-23.911,19.453-43.364,43.364-43.364c23.911,0,43.364,19.453,43.364,43.364  C448.221,374.46,428.767,393.913,404.856,393.913z M404.856,284.185c-32.499,0-59.597,23.487-65.259,54.375h-2.468v-89.668h131.798  v84.389C461.307,305.035,435.477,284.185,404.856,284.185z"
   id="path2" />
<g
   id="g4">
</g>
<g
   id="g6">
</g>
<g
   id="g8">
</g>
<g
   id="g10">
</g>
<g
   id="g12">
</g>
<g
   id="g14">
</g>
<g
   id="g16">
</g>
<g
   id="g18">
</g>
<g
   id="g20">
</g>
<g
   id="g22">
</g>
<g
   id="g24">
</g>
<g
   id="g26">
</g>
<g
   id="g28">
</g>
<g
   id="g30">
</g>
<g
   id="g32">
</g>
<path
   style="fill:#ffffff;stroke-width:0.754491"
   d="m 110.91015,415.72561 c -11.203925,-1.99335 -23.53109,-7.88777 -32.474002,-15.52794 -9.10576,-7.7793 -17.831522,-21.93009 -20.546744,-33.32119 l -1.302593,-5.46474 -18.536707,-0.005 C 17.328643,361.40043 14.071848,360.87633 8.5984829,356.66622 6.85899,355.32817 4.3824814,352.36607 3.0951298,350.08374 L 0.75449081,345.93404 0.55715299,219.58913 C 0.33309155,76.134535 -0.23490981,88.789168 6.7412117,81.813047 13.749619,74.80464 -2.1674181,75.408203 169.78848,75.630401 l 151.62461,0.195926 3.18654,1.702715 c 4.32484,2.310955 8.3715,6.505806 10.3017,10.678938 1.51042,3.265593 1.61451,4.847416 1.82891,27.79498 l 0.22733,24.33233 30.70679,0.0166 c 28.4156,0.0153 30.93197,0.12202 33.72475,1.42978 3.73672,1.74977 88.18316,86.16076 89.3678,89.33029 1.05087,2.81162 1.09289,110.69745 0.0446,114.47091 -2.09768,7.55073 -8.67223,13.54686 -16.66345,15.19742 l -4.28659,0.88538 -0.92256,4.20605 c -4.92867,22.4705 -23.70774,41.76811 -47.16853,48.471 -8.42771,2.40784 -25.08613,2.42565 -33.76269,0.0361 -11.04444,-3.04168 -21.33089,-9.10557 -29.61454,-17.45786 -8.92117,-8.99509 -15.39867,-20.54556 -17.79924,-31.73903 l -0.81083,-3.78076 h -76.44304 -76.44305 l -0.91733,3.96108 c -1.33678,5.77225 -4.29801,13.03633 -7.7345,18.97316 -3.61945,6.2529 -12.83528,16.10885 -18.94793,20.26402 -5.72751,3.89337 -15.37108,8.34586 -21.59265,9.96945 -5.67452,1.48085 -21.19539,2.15119 -26.78442,1.1568 z m 24.52095,-23.84953 c 13.40167,-4.19321 24.23358,-15.3887 28.39031,-29.34325 2.10678,-7.07264 1.78713,-18.81067 -0.70637,-25.93921 -6.32532,-18.08316 -22.40697,-29.46929 -41.67212,-29.50471 -11.81522,-0.0217 -21.777226,4.08217 -30.187415,12.43582 -17.04522,16.93065 -17.664339,43.1296 -1.431895,60.59277 11.89824,12.80035 28.55372,17.09449 45.60749,11.75858 z m 279.53885,1.08363 c 11.81968,-2.4731 23.44947,-11.77496 28.95452,-23.15871 12.16652,-25.15882 -1.38218,-54.54454 -28.37326,-61.53864 -14.52887,-3.76481 -30.97419,0.83964 -41.71526,11.67966 -16.82616,16.98118 -16.8646,44.09956 -0.0865,61.03508 11.2454,11.35091 25.05448,15.36515 41.22052,11.98261 z M 58.049762,333.71384 c 5.63472,-22.43194 24.544702,-41.11999 47.578948,-47.02055 35.36579,-9.05947 71.23194,12.75168 80.35583,48.8665 l 0.8101,3.20658 h 63.72539 63.72539 V 218.04784 97.329315 H 168.6287 23.01197 V 218.04784 338.76637 h 16.884317 16.884317 z m 282.563168,2.22319 c 0.43216,-1.55613 0.78764,-3.1123 0.78995,-3.45814 0.0141,-2.10497 5.25116,-13.11151 8.71732,-18.32083 15.51979,-23.3248 43.98823,-34.35495 70.88567,-27.46477 21.69775,5.5582 39.93056,22.76163 46.79275,44.15093 0.81377,2.53653 0.98012,-3.8124 1.04282,-39.79939 l 0.0746,-42.81735 h -66.01795 -66.01794 v 45.26945 c 0,44.40327 0.0282,45.26944 1.47352,45.26944 1.06004,0 1.694,-0.79391 2.25926,-2.82934 z m 83.41091,-141.2784 -31.68188,-31.68861 h -27.73091 -27.7309 v 31.68861 31.68861 h 59.41278 59.41278 z"
   id="path891" /></svg>
