<?xml version="1.0" encoding="UTF-8" standalone="no"?>
<!-- Generator: Adobe Illustrator 19.0.0, SVG Export Plug-In . SVG Version: 6.00 Build 0)  -->

<svg
   version="1.1"
   id="Layer_1"
   x="0px"
   y="0px"
   viewBox="0 0 488.024 488.024"
   style="enable-background:new 0 0 488.024 488.024;"
   xml:space="preserve"
   sodipodi:docname="weather.svg"
   inkscape:version="1.1.1 (3bf5ae0d25, 2021-09-20)"
   xmlns:inkscape="http://www.inkscape.org/namespaces/inkscape"
   xmlns:sodipodi="http://sodipodi.sourceforge.net/DTD/sodipodi-0.dtd"
   xmlns="http://www.w3.org/2000/svg"
   xmlns:svg="http://www.w3.org/2000/svg"><defs
   id="defs51" /><sodipodi:namedview
   id="namedview49"
   pagecolor="#505050"
   bordercolor="#eeeeee"
   borderopacity="1"
   inkscape:pageshadow="0"
   inkscape:pageopacity="0"
   inkscape:pagecheckerboard="0"
   showgrid="false"
   inkscape:zoom="1.3359999"
   inkscape:cx="244.01199"
   inkscape:cy="244.38624"
   inkscape:window-width="1600"
   inkscape:window-height="837"
   inkscape:window-x="-8"
   inkscape:window-y="-8"
   inkscape:window-maximized="1"
   inkscape:current-layer="Layer_1" />
<g
   transform="translate(0 -540.36)"
   id="g16">
	<g
   id="g14">
		<g
   id="g12">
			<path
   d="M393.017,872.284c-2.5-5-8.5-7-13.4-4.5l-15.8,7.9v-19.2c0-5.5-4.5-10-10-10s-10,4.5-10,10v19.2l-15.8-7.9     c-4.9-2.5-10.9-0.4-13.4,4.5s-0.4,10.9,4.5,13.4l12.3,6.1l-12.3,6.1c-5,2.5-7,8.5-4.7,13.4c1.8,3.5,5.3,5.5,9,5.5     c1.5,0,3.1-0.4,4.5-1.1l15.8-7.9v19.2c0,5.5,4.5,10,10,10s10-4.5,10-10v-19.2l15.8,7.9c1.5,0.8,3,1.1,4.5,1.1c3.7,0,7.3-2,9-5.5     c2.5-4.9,0.4-10.9-4.5-13.4l-12.3-6.1l12.3-6.1C393.517,883.184,395.517,877.184,393.017,872.284z"
   id="path2" />
			<path
   d="M342.317,963.484c-2.5-5-8.4-7-13.4-4.6l-16.2,8v-19.3c0-5.5-4.5-10-10-10s-10,4.5-10,10v19.3l-16.2-8     c-5-2.4-11-0.4-13.4,4.6c-2.4,5-0.4,11,4.6,13.4l12.4,6.1l-12.4,6.1c-5,2.4-7,8.4-4.6,13.4c1.8,3.5,5.3,5.6,9,5.6     c1.5,0,3-0.3,4.4-1l16.2-8v19.3c0,5.5,4.5,10,10,10s10-4.5,10-10v-19.3l16.2,8c1.4,0.7,2.9,1,4.4,1c3.7,0,7.3-2.1,9-5.6     c2.4-5,0.4-11-4.6-13.4l-12.4-6.1l12.4-6.1C342.717,974.384,344.717,968.484,342.317,963.484z"
   id="path4" />
			<path
   d="M85.417,916.784c3.7,0,7.2-2,9-5.5c2.3-4.9,0.3-10.9-4.7-13.4l-12.3-6.1l12.3-6.1c4.9-2.5,7-8.5,4.5-13.4     s-8.5-7-13.4-4.5l-15.8,7.9v-19.2c0-5.5-4.5-10-10-10s-10,4.5-10,10v19.2l-15.8-7.9c-4.9-2.5-10.9-0.5-13.4,4.5     c-2.5,4.9-0.5,10.9,4.5,13.4l12.3,6.1l-12.3,6.1c-4.9,2.5-7,8.5-4.5,13.4c1.7,3.5,5.3,5.5,9,5.5c1.5,0,3-0.3,4.5-1.1l15.8-7.9     v19.2c0,5.5,4.5,10,10,10c5.5,0,10-4.5,10-10v-19.2l15.8,7.9C82.317,916.384,83.917,916.784,85.417,916.784z"
   id="path6" />
			<path
   d="M145.717,963.484c-2.4-5-8.4-7-13.4-4.6l-16.2,8v-19.3c0-5.5-4.5-10-10-10s-10,4.5-10,10v19.3l-16.2-8     c-5-2.4-10.9-0.4-13.4,4.6c-2.4,5-0.4,10.9,4.6,13.4l12.4,6.1l-12.4,6.1c-5,2.4-7,8.4-4.6,13.4c1.7,3.5,5.3,5.6,9,5.6     c1.5,0,3-0.3,4.4-1l16.2-8v19.3c0,5.5,4.5,10,10,10s10-4.5,10-10v-19.3l16.2,8c1.4,0.7,2.9,1,4.4,1c3.7,0,7.2-2.1,9-5.6     c2.4-5,0.4-11-4.6-13.4l-12.4-6.1l12.4-6.1C146.117,974.484,148.117,968.484,145.717,963.484z"
   id="path8" />
			<path
   d="M471.417,665.784L471.417,665.784c-2.3-3.2-6.2-4.7-10.1-3.9c-3.1,0.6-5.6,0.6-9.5,0.6c-39.5,0-71.7-32-71.7-71.4     c0-13.1,3-24.5,9.3-35.8c1.9-3.3,1.7-7.5-0.5-10.6c-2.2-3.2-6-4.8-9.8-4.2c-22,3.5-42.1,14.6-56.5,31.2     c-11.7,13.4-19.3,30-21.9,47.6c-13-4.7-27-7.3-41.7-7.3c-45.4,0-86.8,24.9-107.9,64.3c-7.5-2.2-16-3.2-25.2-3.2     c-50.5,0-91.7,41-91.7,91.4s41.1,91.4,91.7,91.4h82.3l-38.5,44.5c-2.7,3.2-3.2,7.7-1.2,11.4s6.2,5.7,10.3,5l34.8-5.5l-33.4,39.7     c-3.6,4.2-3,10.5,1.2,14.1c1.9,1.6,4.2,2.3,6.4,2.3c2.9,0,5.7-1.2,7.7-3.6l50.6-60.2c2.7-3.2,3.1-7.7,1-11.4     c-2.1-3.7-6.2-5.6-10.3-5l-34.2,5.5l31.8-36.9h24.3c67.2,0,121.9-54.9,121.9-122.3c0-3.7-0.2-7.3-0.5-10.9     c3.8,0.4,7.7,0.6,11.7,0.6c33.5,0,63.3-17.4,79.8-46.6C474.017,673.184,473.717,668.984,471.417,665.784z M259.217,835.884     h-133.1c-39.5,0-71.7-32-71.7-71.4s32.1-71.4,71.7-71.4c10.1,0,19.1,1.7,26.1,4.8c2.4,1.1,5.2,1.2,7.7,0.2s4.5-2.9,5.6-5.3     c16.3-36.9,53.1-60.8,93.7-60.8c56.2,0,101.9,45.5,101.9,101.5C361.117,789.984,315.417,835.884,259.217,835.884z      M392.317,703.184L392.317,703.184c-5.4,0-10.4-0.4-15.4-1.2c-8.5-31.4-29.3-57.8-56.9-73.7c1.9-27.6,19-51.3,43.6-62.4     c-2.2,8-3.3,16.3-3.3,25.2c0,47.4,36.4,86.6,82.9,91C429.917,695.484,411.917,703.184,392.317,703.184z"
   id="path10" />
		</g>
	</g>
</g>
<g
   id="g18">
</g>
<g
   id="g20">
</g>
<g
   id="g22">
</g>
<g
   id="g24">
</g>
<g
   id="g26">
</g>
<g
   id="g28">
</g>
<g
   id="g30">
</g>
<g
   id="g32">
</g>
<g
   id="g34">
</g>
<g
   id="g36">
</g>
<g
   id="g38">
</g>
<g
   id="g40">
</g>
<g
   id="g42">
</g>
<g
   id="g44">
</g>
<g
   id="g46">
</g>
<path
   style="fill:#ffffff;stroke-width:0.748503"
   d="m 49.917536,394.44192 c -3.843039,-2.34304 -4.633102,-5.20754 -4.633102,-16.79809 0,-6.36419 -0.282834,-10.12883 -0.760971,-10.12883 -0.418533,0 -4.454839,1.85254 -8.969568,4.11676 -8.828768,4.4278 -12.076222,5.02653 -15.688749,2.89256 -4.790474,-2.8298 -6.041267,-9.57855 -2.545287,-13.73329 1.08655,-1.29129 4.960054,-3.84671 8.607785,-5.67871 3.647731,-1.832 6.632239,-3.49256 6.632239,-3.69014 0,-0.19757 -2.984508,-1.85814 -6.632239,-3.69014 -8.002681,-4.01919 -10.58536,-6.74147 -10.578399,-11.15022 0.0055,-3.46669 1.918979,-6.97002 4.628118,-8.47337 3.440964,-1.90944 6.989941,-1.20219 15.576532,3.10415 4.514729,2.26422 8.551035,4.11677 8.969568,4.11677 0.478137,0 0.760971,-3.76465 0.760971,-10.12884 0,-11.16623 0.699556,-13.99557 4.127006,-16.6916 2.83532,-2.23026 8.371748,-2.23026 11.207068,0 3.42745,2.69603 4.127006,5.52537 4.127006,16.6916 0,6.36419 0.282834,10.12884 0.76097,10.12884 0.418534,0 4.45484,-1.85255 8.969569,-4.11677 10.454106,-5.24293 13.087259,-5.42719 17.303632,-1.21082 2.522335,2.52234 2.90595,3.35465 2.90595,6.30485 0,4.71434 -2.417672,7.32437 -10.583331,11.42541 -3.647731,1.832 -6.632239,3.49257 -6.632239,3.69014 0,0.19758 2.984508,1.85814 6.632239,3.69014 3.647731,1.832 7.521235,4.38742 8.607785,5.67871 3.498129,4.15729 2.192874,11.39996 -2.490973,13.82208 -3.871495,2.00202 -6.980457,1.41326 -15.743063,-2.98135 -4.514729,-2.26422 -8.551035,-4.11676 -8.969569,-4.11676 -0.479517,0 -0.76097,3.88954 -0.76097,10.51621 0,11.41005 -0.530376,13.47511 -4.202754,16.3638 -2.585546,2.0338 -7.331972,2.05475 -10.625224,0.0469 z"
   id="path905" /><path
   style="fill:#ffffff;stroke-width:0.748503"
   d="m 99.686571,484.74149 c -3.134354,-3.13435 -3.503929,-4.93021 -3.503929,-17.02642 v -9.64274 l -8.970527,4.49678 c -5.941353,2.97831 -9.871609,4.49679 -11.638968,4.49679 -5.531206,0 -9.330627,-3.80987 -9.330627,-9.35629 0,-4.9632 1.644936,-6.79575 9.751732,-10.86393 4.105111,-2.06004 7.463838,-4.026 7.463838,-4.3688 0,-0.3428 -2.868508,-1.90144 -6.374463,-3.46363 -8.076907,-3.59894 -10.841107,-6.4907 -10.841107,-11.34138 0,-4.16967 2.129495,-7.47683 5.80258,-9.01154 3.455676,-1.44388 5.672898,-0.87051 15.330163,3.9643 4.418667,2.21216 8.207964,4.02211 8.420659,4.02211 0.212696,0 0.388598,-4.29454 0.390894,-9.54342 0.0049,-11.16652 0.720673,-14.37438 3.782273,-16.95055 3.118601,-2.62413 6.629841,-3.15285 10.076461,-1.51733 4.91897,2.33421 5.59218,4.37608 5.59537,16.97088 0.002,6.43335 0.29806,11.04042 0.71036,11.04042 0.38915,0 4.81392,-2.02096 9.83282,-4.49102 5.01889,-2.47006 9.66868,-4.48362 10.33286,-4.47458 2.90678,0.0396 7.33836,2.84913 8.56229,5.42838 3.1784,6.69799 0.95158,10.40594 -9.35561,15.57834 l -7.65831,3.84311 7.44532,3.84681 c 7.98565,4.12598 10.8217,7.03639 10.8217,11.10544 0,2.80865 -1.69855,6.04978 -4.20276,8.01959 -3.47918,2.73672 -7.18286,2.12138 -17.35067,-2.88273 l -9.03343,-4.44583 -0.23801,11.99022 -0.23801,11.99022 -2.7959,2.5604 c -2.40018,2.19801 -3.3236,2.56039 -6.52445,2.56039 -3.23916,0 -4.06115,-0.33259 -6.262549,-2.53399 z"
   id="path944" /><path
   style="fill:#ffffff;stroke-width:0.748503"
   d="m 183.28348,425.21106 c -3.28702,-2.00433 -4.7655,-4.4125 -4.7655,-7.76212 0,-4.44869 -2.05095,-1.70618 27.98021,-37.41496 4.07662,-4.84734 7.27254,-8.95286 7.10203,-9.12337 -0.1705,-0.1705 -8.51486,0.97731 -18.54302,2.5507 -20.17926,3.16608 -21.81649,3.1148 -25.09889,-0.78612 -2.33687,-2.7772 -2.6509,-8.26021 -0.63968,-11.16879 0.70384,-1.01788 9.79816,-11.68675 20.20959,-23.7086 10.41143,-12.02185 18.92988,-22.02428 18.92988,-22.22764 0,-0.20334 -21.6411,-0.48971 -48.09132,-0.63637 l -48.09132,-0.26666 -7.48503,-1.99003 C 87.804593,308.16108 74.929673,301.11358 63.210055,289.91672 33.990219,262.00025 26.45225,219.65093 44.314243,183.7575 57.29975,157.6633 82.58472,139.06904 111.55901,134.3065 c 9.04821,-1.48727 27.20936,-1.06982 34.77334,0.79929 4.52091,1.11715 4.91824,1.11358 5.61377,-0.0504 13.64559,-22.83569 32.416,-40.560336 53.84525,-50.845382 27.0576,-12.986384 57.90572,-15.653891 86.58022,-7.486789 3.54389,1.009379 6.99636,2.047403 7.67216,2.306729 0.88658,0.340217 1.22873,0.05517 1.22873,-1.023638 0,-0.822328 0.83577,-4.711835 1.85726,-8.643349 8.50418,-32.730821 34.61472,-58.667914 67.50398,-67.0555716 10.94777,-2.79198075 15.73434,-1.83750819 18.60282,3.7095267 1.6371,3.1657899 1.37038,5.4816209 -1.22298,10.6190419 -5.17736,10.256291 -7.35805,18.680522 -7.90035,30.519714 -0.49651,10.839788 0.69178,18.768048 4.31291,28.775518 6.32158,17.470548 21.71944,33.49883 39.1537,40.75673 10.25458,4.26899 17.33948,5.54885 31.13578,5.62455 13.43698,0.0737 14.90336,0.43693 16.83357,4.16954 1.84835,3.57432 1.38862,6.60788 -1.81062,11.94749 -10.91189,18.21226 -28.77924,32.60364 -48.70559,39.23028 -10.38425,3.45335 -16.82105,4.44617 -29.34276,4.52588 l -11.75294,0.0748 -0.0112,11.22755 c -0.0198,19.90364 -4.15276,37.07859 -13.22971,54.97829 -16.15964,31.86674 -47.10908,55.96003 -81.70806,63.60748 -10.08787,2.2297 -19.72579,3.04593 -35.96615,3.04593 h -14.88422 l -15.88852,18.40846 c -8.73869,10.12466 -15.72546,18.57152 -15.52617,18.77082 0.19929,0.19929 7.76396,-0.84275 16.81036,-2.31565 9.04641,-1.4729 17.58121,-2.67674 18.96622,-2.6752 3.44614,0.004 7.25426,2.49915 8.55127,5.60333 1.48807,3.56145 1.34832,5.55034 -0.61025,8.68471 -3.26108,5.21881 -52.35508,62.84453 -54.47339,63.93995 -2.90658,1.50304 -5.86758,1.39218 -8.68393,-0.32514 z M 275.8786,294.45948 c 14.36989,-2.44243 28.19546,-7.96943 40.56537,-16.21668 8.27007,-5.5138 21.0301,-18.04605 26.46981,-25.99727 8.41266,-12.29679 14.77721,-28.08159 17.15464,-42.54543 1.8608,-11.3208 1.19945,-29.8305 -1.44018,-40.30673 -9.76547,-38.75754 -39.15458,-67.23427 -78.37464,-75.9415 -10.47377,-2.325277 -30.46138,-2.493188 -40.73262,-0.342185 -20.79588,4.35506 -38.60265,13.903015 -53.14372,28.495565 -8.28856,8.3179 -13.34232,15.22794 -18.9225,25.87288 -3.8921,7.42471 -6.93312,10.45601 -10.48952,10.45601 -1.02866,0 -5.10497,-1.07981 -9.05847,-2.39959 -7.00308,-2.3378 -7.53517,-2.40044 -20.66125,-2.43263 -11.76459,-0.0289 -14.26433,0.18329 -19.71305,1.67303 -25.095034,6.86125 -44.324417,26.09064 -51.185667,51.18567 -1.467619,5.36782 -1.699628,7.96621 -1.659915,18.59029 0.04201,11.23798 0.230462,12.95703 2.092445,19.08683 4.284526,14.10503 12.508935,26.74351 23.088623,35.4804 9.079029,7.49761 22.870464,13.88437 34.024084,15.75641 1.99262,0.33445 37.66725,0.64769 79.27697,0.69611 66.23101,0.0771 76.53284,-0.0613 82.70959,-1.11118 z m 128.90842,-132.4028 c 12.85909,-2.24243 26.29905,-8.66987 35.11421,-16.79279 l 3.96108,-3.65003 -2.99402,-0.48306 c -17.89543,-2.88732 -31.12818,-8.36378 -44.4319,-18.38843 -24.15066,-18.19807 -38.01422,-49.49455 -35.33769,-79.773514 0.39689,-4.489906 1.21519,-10.268629 1.81844,-12.841608 0.81264,-3.466025 0.86852,-4.678144 0.2157,-4.678144 -1.34481,0 -10.38085,5.452714 -15.24036,9.19666 -14.62373,11.266659 -26.03789,31.249174 -27.62907,48.369586 l -0.47478,5.108421 5.15061,3.341782 c 22.78247,14.781577 41.57707,38.917567 49.4095,63.451587 1.12116,3.5119 2.16155,6.53977 2.31197,6.72861 1.2595,1.58114 19.85764,1.85287 28.12631,0.41093 z"
   id="path983" /><path
   style="fill:#ffffff;stroke-width:0.748503"
   d="m 348.57025,394.44192 c -3.84304,-2.34304 -4.6331,-5.20754 -4.6331,-16.79809 0,-6.36419 -0.28283,-10.12883 -0.76097,-10.12883 -0.41853,0 -4.45484,1.85254 -8.96957,4.11676 -10.923,5.47809 -15.35285,5.43616 -18.82271,-0.17819 -2.04221,-3.30438 -1.60153,-8.43062 0.95907,-11.15627 0.97395,-1.03673 4.89058,-3.43369 8.70361,-5.32658 l 6.93279,-3.44162 -7.27949,-3.79934 c -8.83236,-4.60982 -11.03455,-7.21301 -10.46845,-12.37468 0.28807,-2.62651 0.94126,-3.86919 3.04912,-5.8009 4.07985,-3.7389 7.21128,-3.44396 17.60769,1.65842 4.61349,2.26422 8.53684,4.11677 8.71854,4.11677 0.1817,0 0.33225,-4.29454 0.33454,-9.54342 0.005,-11.19489 0.71952,-14.37341 3.81767,-16.98033 1.77441,-1.49307 3.10196,-1.91937 5.97712,-1.91937 3.16385,0 4.09868,0.36869 6.49197,2.56037 l 2.7959,2.56037 0.23981,11.66119 c 0.13706,6.66469 0.5433,11.66119 0.9481,11.66119 0.38955,0 4.40215,-1.85255 8.91688,-4.11677 8.76261,-4.39461 11.87157,-4.98337 15.74306,-2.98134 4.68385,2.42211 5.9891,9.66478 2.49097,13.82207 -1.08654,1.29129 -4.96005,3.84671 -8.60778,5.67871 -3.64773,1.832 -6.63224,3.49257 -6.63224,3.69014 0,0.19758 2.98451,1.85814 6.63224,3.69014 3.64773,1.832 7.52124,4.38742 8.60778,5.67871 3.49813,4.15729 2.19288,11.39996 -2.49097,13.82208 -3.87149,2.00202 -6.98045,1.41326 -15.74306,-2.98135 -4.51473,-2.26422 -8.55104,-4.11676 -8.96957,-4.11676 -0.47952,0 -0.76097,3.88954 -0.76097,10.51621 0,11.41005 -0.53038,13.47511 -4.20275,16.3638 -2.58555,2.0338 -7.33198,2.05475 -10.62523,0.0469 z"
   id="path1022" /><path
   style="fill:#ffffff;stroke-width:0.748503"
   d="m 297.2417,485.71238 c -3.69636,-2.90755 -4.20276,-4.92503 -4.20276,-16.74382 v -10.89623 l -8.97052,4.49678 c -6.22101,3.1185 -9.83439,4.49593 -11.78893,4.49399 -8.006,-0.008 -12.51795,-9.02571 -7.62697,-15.24358 0.8329,-1.05886 4.69755,-3.44293 8.58812,-5.29793 3.89056,-1.855 7.07375,-3.54596 7.07375,-3.75769 0,-0.21172 -3.31354,-2.04777 -7.36343,-4.08009 -7.68925,-3.85865 -9.65989,-5.78137 -10.3624,-10.11042 -0.70888,-4.36832 3.18577,-9.47809 8.03616,-10.54341 1.74708,-0.38373 4.15541,0.41061 11.37952,3.75326 5.0399,2.332 9.56038,4.40708 10.04552,4.61128 0.64937,0.27333 0.94556,-2.68974 1.12275,-11.23197 0.23201,-11.18513 0.30812,-11.67534 2.11194,-13.60371 3.95848,-4.23177 7.75787,-5.07269 11.79577,-2.61076 4.71187,2.87287 5.41387,5.08013 5.417,17.03249 0.002,5.86639 0.14507,10.66617 0.31896,10.66617 0.17388,0 4.26672,-1.9291 9.09519,-4.28688 9.74286,-4.75753 13.07406,-5.31221 16.56703,-2.75859 1.14977,0.84057 2.72339,2.80256 3.49694,4.36 1.20541,2.42691 1.28143,3.24899 0.53182,5.75097 -1.16113,3.8755 -2.93856,5.42574 -10.73318,9.36127 -3.60218,1.81875 -6.54941,3.46878 -6.54941,3.66673 0,0.19795 3.3597,2.04589 7.46599,4.10652 7.3811,3.70401 9.20946,5.33244 10.11071,9.00509 0.74708,3.04441 -1.17705,7.58459 -4.0272,9.50256 -4.14403,2.78866 -7.14916,2.30493 -17.30352,-2.7853 l -8.97053,-4.49678 v 10.50885 c 0,11.57041 -0.67311,14.35479 -4.127,17.07162 -2.79688,2.20003 -8.37226,2.22987 -11.13132,0.0596 z"
   id="path1061" /></svg>
